<svg width="24" height="24" viewBox="0 0 24 24" fill="none" xmlns="http://www.w3.org/2000/svg">
<g clip-path="url(#clip0_594_198)">
<path d="M5.6 16.7904L6.0112 16.104L5.8208 15.992H5.6V16.7904ZM5.6 7.19682V7.99682H5.8208L6.0128 7.88322L5.6 7.19682ZM13.6 2.40002H14.4C14.4 2.25848 14.3625 2.11946 14.2913 1.99715C14.22 1.87485 14.1176 1.77364 13.9944 1.70385C13.8713 1.63406 13.7318 1.5982 13.5903 1.59991C13.4488 1.60163 13.3102 1.64087 13.1888 1.71362L13.6 2.40002ZM13.6 21.5872L13.1888 22.2736C13.3102 22.3464 13.4488 22.3856 13.5903 22.3873C13.7318 22.389 13.8713 22.3532 13.9944 22.2834C14.1176 22.2136 14.22 22.1124 14.2913 21.9901C14.3625 21.8678 14.4 21.7288 14.4 21.5872H13.6ZM5.6 15.992L2.4 15.9904V17.5904H5.6V15.992ZM2.4 15.9904C2.18783 15.9904 1.98434 15.9061 1.83431 15.7561C1.68429 15.6061 1.6 15.4026 1.6 15.1904H0C0 16.5184 1.0752 17.5904 2.4 17.5904V15.9904ZM1.6 15.1904V8.79682H0V15.1936L1.6 15.1904ZM1.6 8.79682C1.60042 8.58493 1.6849 8.38025 1.83488 8.23057C1.98486 8.08089 2.1881 7.99682 2.4 7.99682V6.39682C1.76348 6.39682 1.15303 6.64968 0.702944 7.09977C0.252856 7.54985 0 8.1603 0 8.79682H1.6ZM2.4 7.99682H5.6V6.39682H2.4V7.99682ZM6.0128 7.88322L14.0112 3.08642L13.1888 1.71362L5.1888 6.51042L6.0128 7.88322ZM12.8 2.40002V21.5872H14.4V2.40002H12.8ZM14.0112 20.9008L6.0112 16.104L5.1888 17.4768L13.1888 22.2736L14.0112 20.9008Z" fill="white"/>
<path d="M15.6418 15.071L15.5711 15.1417L15.6418 15.2124L16.5422 16.1127L16.6129 16.1834L16.6836 16.1127L23.8802 8.91609L23.9509 8.84538L23.8802 8.77467L22.9799 7.87436L22.9092 7.80365L22.8385 7.87436L15.6418 15.071Z" fill="white" stroke="white" stroke-width="0.2"/>
<path d="M22.8383 16.1128L22.909 16.1835L22.9797 16.1128L23.88 15.2125L23.9508 15.1418L23.88 15.0711L16.6834 7.87444L16.6127 7.80373L16.542 7.87444L15.6417 8.77475L15.571 8.84546L15.6417 8.91617L22.8383 16.1128Z" fill="white" stroke="white" stroke-width="0.2"/>
</g>
<defs>
<clipPath id="clip0_594_198">
<rect width="24" height="24" fill="white"/>
</clipPath>
</defs>
</svg>
