<svg width="32" height="28" viewBox="0 0 32 28" fill="none" xmlns="http://www.w3.org/2000/svg">
<path fill-rule="evenodd" clip-rule="evenodd" d="M28.626 0.839791C29.0177 0.67814 29.4463 0.622388 29.8673 0.678336C30.2884 0.734285 30.6864 0.899889 31.02 1.15791C31.3537 1.41594 31.6107 1.75695 31.7643 2.14545C31.918 2.53395 31.9627 2.95574 31.8937 3.36692L28.2996 24.748C27.951 26.8105 25.6436 27.9932 23.7151 26.9659C22.1018 26.1064 19.7058 24.7822 17.5506 23.4006C16.473 22.7089 13.1721 20.4942 13.5777 18.9182C13.9264 17.5708 19.4728 12.5072 22.6422 9.49668C23.8862 8.31394 23.3189 7.63164 21.8499 8.71958C18.2019 11.4208 12.3449 15.5285 10.4084 16.6849C8.70005 17.7044 7.80944 17.8785 6.74453 17.7044C4.80169 17.3874 2.99988 16.8962 1.52928 16.2979C-0.457929 15.4897 -0.361263 12.8102 1.5277 12.03L28.626 0.839791Z" fill="white"/>
</svg>
