<svg width="34" height="34" viewBox="0 0 34 34" fill="none" xmlns="http://www.w3.org/2000/svg">
<path fill-rule="evenodd" clip-rule="evenodd" d="M15.8191 0.0383378C11.7139 0.312511 7.79459 2.11896 4.877 5.08163C2.18268 7.81753 0.540872 11.231 0.0635569 15.0891C-0.0211856 15.774 -0.0211856 18.2429 0.0635569 18.9279C0.540872 22.7859 2.18268 26.1994 4.877 28.9353C7.6281 31.7289 11.1863 33.4593 15.1248 33.919C15.9461 34.0148 17.8391 34.0285 18.6421 33.9445C22.2905 33.5625 25.5656 32.1197 28.2559 29.709C28.8692 29.1594 29.0181 28.8864 29.015 28.3163C29.0099 27.384 28.1708 26.6654 27.2584 26.8119C26.8757 26.8733 26.6101 27.0182 26.1818 27.3992C22.7345 30.4661 17.9597 31.6263 13.46 30.4902C11.0771 29.8886 8.80489 28.5746 7.06736 26.7933C6.61124 26.3257 6.58742 26.2918 6.6488 26.1971C6.68463 26.1419 8.29319 23.5888 10.2234 20.5235C12.1536 17.4583 13.7612 14.9198 13.7958 14.8826C13.8484 14.8259 13.8586 15.2859 13.8588 17.7039C13.8589 21.2521 13.8961 21.6308 14.3298 22.5012C14.9653 23.7766 16.3945 24.1307 17.6337 23.3198C17.9724 23.0981 18.4956 22.5875 18.7828 22.1983C18.8989 22.041 19.954 20.3737 21.1276 18.4933C22.3012 16.6128 23.3247 14.9735 23.4021 14.8504L23.5428 14.6266L23.5682 16.7772C23.5918 18.77 23.6013 18.9625 23.6975 19.3991C24.178 21.5797 25.4208 22.9741 27.3649 23.5137C27.6064 23.5808 27.8354 23.5982 28.467 23.5977C29.1919 23.5972 29.3068 23.5855 29.7332 23.4694C29.9911 23.3992 30.3921 23.25 30.6242 23.138C32.4191 22.2716 33.4522 20.959 33.8947 18.9828C33.9914 18.551 34.0001 18.3937 34 17.101C33.9999 15.6266 33.9696 15.2369 33.7627 14.0484C32.9575 9.42089 30.201 5.29133 26.1911 2.70528C23.1258 0.728395 19.4888 -0.20679 15.8191 0.0383378ZM15.5773 3.09147C10.4697 3.62312 6.01007 7.00583 4.08946 11.8053C3.6242 12.9679 3.33756 14.1071 3.18759 15.3897C3.07883 16.3198 3.11321 18.1562 3.25559 19.0204C3.43229 20.0929 3.72709 21.1592 4.10911 22.1074C4.32352 22.6395 4.69701 23.4373 4.73171 23.4373C4.74508 23.4373 6.59712 20.5287 8.84728 16.9738C12.834 10.6754 12.9488 10.5002 13.3399 10.1165C14.1555 9.31632 14.918 9.14395 15.7744 9.56598C16.3034 9.8267 16.6905 10.3874 16.8895 11.1809C16.9697 11.5005 16.9783 11.832 17.0003 15.4028L17.0242 19.2779L18.8297 16.4442C21.3471 12.4932 21.3684 12.4624 22.0153 11.8284C22.3504 11.4999 22.6746 11.2297 22.8628 11.1218C24.1592 10.3792 25.5889 10.7807 26.2302 12.0675C26.6505 12.9111 26.7074 13.4209 26.7079 16.3513C26.7084 18.7355 26.7279 18.9411 27.0086 19.5291C27.2212 19.9743 27.4866 20.2883 27.7906 20.4541C28.0281 20.5837 28.0777 20.5929 28.5398 20.5929C29.0179 20.5929 29.0469 20.5869 29.3933 20.4181C30.08 20.0833 30.5501 19.4598 30.796 18.5579C30.8846 18.2328 30.8963 18.0723 30.8929 17.2359C30.8848 15.309 30.6338 13.7928 30.0626 12.2201C29.7927 11.477 29.1188 10.1153 28.7026 9.47182C26.3938 5.90294 22.6948 3.58667 18.5483 3.11321C17.8679 3.03555 16.2299 3.02353 15.5773 3.09147Z" fill="white"/>
</svg>
